# xmcd
#
# Track frame offsets:
#	150
#	18561
#	38685
#	60852
#	81681
#	101005
#	120055
#	143565
#	158328
#	173274
#	192909
#	212933
#
# Disc length: 3105 seconds
#
# Revision: 1
# Processed by: cddbd v1.5.2PL0 Copyright (c) Steve Scherf et al.
# Submitted via: audiograbber 1.83.01
#
DISCID=8b0c1f0c
DTITLE=Little Big Town - A Place To Land
DYEAR=2007
DGENRE=
TTITLE0=Fine Line
TTITLE1=I'm With The Band
TTITLE2=That's Where I'll Be
TTITLE3=Evangeline
TTITLE4=Vapor
TTITLE5=Novocaine
TTITLE6=Only What You Make Of It
TTITLE7=A Place To Land
TTITLE8=Firebird Fly
TTITLE9=To Know Love
TTITLE10=Lonely Enough
TTITLE11=Fury
EXTD=
EXTT0=
EXTT1=
EXTT2=
EXTT3=
EXTT4=
EXTT5=
EXTT6=
EXTT7=
EXTT8=
EXTT9=
EXTT10=
EXTT11=
PLAYORDER=
